<?xml version="1.0" standalone="no"?>
<!DOCTYPE svg PUBLIC "-//W3C//DTD SVG 20010904//EN"
 "http://www.w3.org/TR/2001/REC-SVG-20010904/DTD/svg10.dtd">
<svg version="1.0" xmlns="http://www.w3.org/2000/svg"
 width="800.000000pt" height="800.000000pt" viewBox="0 0 800.000000 800.000000"
 preserveAspectRatio="xMidYMid meet">
<metadata>
Created by potrace 1.13, written by Peter Selinger 2001-2015
</metadata>
<g transform="translate(0.000000,800.000000) scale(0.100000,-0.100000)"
fill="#000000" stroke="none">
<path d="M3735 7119 c-574 -54 -1084 -256 -1513 -598 -434 -347 -758 -775
-946 -1253 -203 -517 -248 -1160 -119 -1738 50 -228 119 -419 227 -635 146
-290 339 -549 592 -796 472 -460 1018 -725 1651 -803 719 -89 1418 68 1984
446 l94 63 -1525 5 c-1591 5 -1570 5 -1570 46 0 20 69 67 218 148 70 38 128
70 130 71 2 1 -17 31 -41 66 -172 247 -273 637 -302 1171 l-7 116 -71 18
c-279 67 -564 238 -717 431 -102 127 -150 232 -170 372 -56 393 340 812 895
947 93 23 133 27 258 28 139 1 148 2 152 21 2 11 18 92 35 180 34 176 96 426
136 544 97 291 333 625 499 707 136 66 281 16 327 -113 19 -55 17 -259 -5
-360 -25 -118 -63 -244 -104 -348 -68 -173 -222 -465 -368 -700 -10 -16 49 36
131 116 368 361 589 531 849 655 446 212 755 201 831 -29 43 -129 -31 -273
-242 -477 -191 -184 -408 -327 -764 -504 -113 -56 -284 -133 -380 -171 -96
-38 -176 -69 -177 -70 -1 -1 9 -33 22 -72 14 -39 30 -106 37 -149 6 -44 12
-80 13 -82 1 -1 27 13 56 33 253 166 657 265 1034 252 437 -14 736 -155 955
-448 163 -219 279 -584 280 -881 0 -43 4 -78 10 -78 5 0 44 5 86 11 145 22
324 -21 454 -111 34 -23 66 -38 70 -33 16 16 79 214 114 355 65 262 80 395 80
723 0 304 -10 421 -55 635 -92 432 -285 836 -563 1181 -498 619 -1142 990
-1897 1094 -138 19 -545 27 -684 14z"/>
<path d="M4995 3679 c-99 -99 -289 -284 -423 -411 l-242 -230 -34 26 c-93 70
-103 86 -111 166 -10 103 -28 142 -92 201 -88 80 -483 349 -513 349 -32 0 14
-44 216 -203 194 -155 249 -207 217 -207 -5 0 -113 81 -242 180 -171 132 -237
178 -245 170 -8 -8 -4 -17 15 -33 15 -12 113 -100 218 -196 171 -156 212 -201
181 -201 -5 0 -103 82 -218 183 -229 202 -228 201 -242 192 -6 -4 82 -102 195
-220 113 -117 205 -218 205 -224 0 -30 -40 4 -232 196 -149 149 -211 204 -218
197 -24 -24 367 -468 459 -522 41 -24 55 -27 131 -25 97 1 116 -6 178 -70 l44
-45 -295 -270 c-161 -148 -304 -282 -315 -297 -41 -52 -23 -142 35 -180 38
-25 112 -25 145 1 21 15 250 265 528 576 l35 39 330 -321 c181 -176 340 -323
353 -327 56 -14 132 57 132 124 0 39 -4 42 -388 353 -160 129 -290 239 -288
244 1 5 59 24 128 42 199 51 286 104 394 237 121 151 177 301 178 477 1 97
-17 210 -33 210 -3 0 -87 -81 -186 -181z"/>
</g>
</svg>
